<mxfile host="www.draw.io" modified="2024-03-28T13:46:10.705Z" agent="Mozilla/5.0 (Windows NT 10.0; Win64; x64) AppleWebKit/537.36 (KHTML, like Gecko) Chrome/123.0.0.0 Safari/537.36" etag="1HYDczmXaRKFGucCqGtA" version="24.2.0" type="device">
  <diagram name="Page-1" id="fIm7Ehy9r7mSIk-dX17D">
    <mxGraphModel dx="1366" dy="710" grid="1" gridSize="10" guides="1" tooltips="1" connect="1" arrows="1" fold="1" page="1" pageScale="1" pageWidth="827" pageHeight="1169" math="0" shadow="0">
      <root>
        <mxCell id="0" />
        <mxCell id="1" parent="0" />
        <mxCell id="GDOoH8tKSfeAS4TJWEL5-4" style="edgeStyle=orthogonalEdgeStyle;rounded=0;orthogonalLoop=1;jettySize=auto;html=1;exitX=0.5;exitY=1;exitDx=0;exitDy=0;entryX=0.5;entryY=0;entryDx=0;entryDy=0;" edge="1" parent="1" source="GDOoH8tKSfeAS4TJWEL5-2" target="GDOoH8tKSfeAS4TJWEL5-3">
          <mxGeometry relative="1" as="geometry" />
        </mxCell>
        <mxCell id="GDOoH8tKSfeAS4TJWEL5-6" style="edgeStyle=orthogonalEdgeStyle;rounded=0;orthogonalLoop=1;jettySize=auto;html=1;exitX=0.5;exitY=1;exitDx=0;exitDy=0;entryX=0.5;entryY=0;entryDx=0;entryDy=0;" edge="1" parent="1" source="GDOoH8tKSfeAS4TJWEL5-2" target="GDOoH8tKSfeAS4TJWEL5-5">
          <mxGeometry relative="1" as="geometry" />
        </mxCell>
        <mxCell id="GDOoH8tKSfeAS4TJWEL5-8" style="edgeStyle=orthogonalEdgeStyle;rounded=0;orthogonalLoop=1;jettySize=auto;html=1;exitX=0.5;exitY=1;exitDx=0;exitDy=0;" edge="1" parent="1" source="GDOoH8tKSfeAS4TJWEL5-2" target="GDOoH8tKSfeAS4TJWEL5-7">
          <mxGeometry relative="1" as="geometry" />
        </mxCell>
        <mxCell id="GDOoH8tKSfeAS4TJWEL5-10" style="edgeStyle=orthogonalEdgeStyle;rounded=0;orthogonalLoop=1;jettySize=auto;html=1;exitX=0.5;exitY=1;exitDx=0;exitDy=0;entryX=0.5;entryY=0;entryDx=0;entryDy=0;" edge="1" parent="1" source="GDOoH8tKSfeAS4TJWEL5-2" target="GDOoH8tKSfeAS4TJWEL5-9">
          <mxGeometry relative="1" as="geometry" />
        </mxCell>
        <mxCell id="GDOoH8tKSfeAS4TJWEL5-2" value="&lt;b&gt;&lt;font style=&quot;font-size: 16px;&quot;&gt;Input&lt;/font&gt;&lt;/b&gt;" style="rounded=0;whiteSpace=wrap;html=1;fillColor=#f5f5f5;fontColor=#333333;strokeColor=#666666;" vertex="1" parent="1">
          <mxGeometry x="220" y="90" width="86" height="30" as="geometry" />
        </mxCell>
        <mxCell id="GDOoH8tKSfeAS4TJWEL5-17" style="edgeStyle=orthogonalEdgeStyle;rounded=0;orthogonalLoop=1;jettySize=auto;html=1;exitX=0.5;exitY=1;exitDx=0;exitDy=0;entryX=0;entryY=0.5;entryDx=0;entryDy=0;" edge="1" parent="1" source="GDOoH8tKSfeAS4TJWEL5-3" target="GDOoH8tKSfeAS4TJWEL5-16">
          <mxGeometry relative="1" as="geometry" />
        </mxCell>
        <mxCell id="GDOoH8tKSfeAS4TJWEL5-3" value="&lt;b style=&quot;font-size: 16px;&quot;&gt;&lt;font style=&quot;font-size: 16px;&quot;&gt;1 * 1 Conv,&amp;nbsp;&lt;/font&gt;&lt;/b&gt;&lt;div style=&quot;font-size: 16px;&quot;&gt;&lt;b style=&quot;&quot;&gt;&lt;font style=&quot;font-size: 16px;&quot;&gt;384&lt;/font&gt;&lt;/b&gt;&lt;/div&gt;" style="rounded=0;whiteSpace=wrap;html=1;fillColor=#f8cecc;strokeColor=#b85450;" vertex="1" parent="1">
          <mxGeometry x="60" y="160" width="100" height="50" as="geometry" />
        </mxCell>
        <mxCell id="GDOoH8tKSfeAS4TJWEL5-14" style="edgeStyle=orthogonalEdgeStyle;rounded=0;orthogonalLoop=1;jettySize=auto;html=1;exitX=0.5;exitY=1;exitDx=0;exitDy=0;entryX=0.5;entryY=0;entryDx=0;entryDy=0;" edge="1" parent="1" source="GDOoH8tKSfeAS4TJWEL5-5" target="GDOoH8tKSfeAS4TJWEL5-12">
          <mxGeometry relative="1" as="geometry" />
        </mxCell>
        <mxCell id="GDOoH8tKSfeAS4TJWEL5-15" style="edgeStyle=orthogonalEdgeStyle;rounded=0;orthogonalLoop=1;jettySize=auto;html=1;exitX=0.5;exitY=1;exitDx=0;exitDy=0;entryX=0.5;entryY=0;entryDx=0;entryDy=0;" edge="1" parent="1" source="GDOoH8tKSfeAS4TJWEL5-5" target="GDOoH8tKSfeAS4TJWEL5-13">
          <mxGeometry relative="1" as="geometry" />
        </mxCell>
        <mxCell id="GDOoH8tKSfeAS4TJWEL5-5" value="&lt;b style=&quot;font-size: 16px;&quot;&gt;&lt;font style=&quot;font-size: 16px;&quot;&gt;1 * 1 Conv,&amp;nbsp;&lt;/font&gt;&lt;/b&gt;&lt;div style=&quot;font-size: 16px;&quot;&gt;&lt;b style=&quot;&quot;&gt;&lt;font style=&quot;font-size: 16px;&quot;&gt;384&lt;/font&gt;&lt;/b&gt;&lt;/div&gt;" style="rounded=0;whiteSpace=wrap;html=1;fillColor=#f8cecc;strokeColor=#b85450;" vertex="1" parent="1">
          <mxGeometry x="190" y="160" width="100" height="50" as="geometry" />
        </mxCell>
        <mxCell id="GDOoH8tKSfeAS4TJWEL5-20" style="edgeStyle=orthogonalEdgeStyle;rounded=0;orthogonalLoop=1;jettySize=auto;html=1;exitX=0.5;exitY=1;exitDx=0;exitDy=0;entryX=0.75;entryY=0;entryDx=0;entryDy=0;" edge="1" parent="1" source="GDOoH8tKSfeAS4TJWEL5-7" target="GDOoH8tKSfeAS4TJWEL5-16">
          <mxGeometry relative="1" as="geometry">
            <Array as="points">
              <mxPoint x="390" y="350" />
              <mxPoint x="313" y="350" />
            </Array>
          </mxGeometry>
        </mxCell>
        <mxCell id="GDOoH8tKSfeAS4TJWEL5-7" value="&lt;span style=&quot;font-size: 16px;&quot;&gt;&lt;b&gt;1 * 1 Conv, 256&lt;/b&gt;&lt;/span&gt;" style="rounded=0;whiteSpace=wrap;html=1;fillColor=#f8cecc;strokeColor=#b85450;" vertex="1" parent="1">
          <mxGeometry x="340" y="160" width="100" height="50" as="geometry" />
        </mxCell>
        <mxCell id="GDOoH8tKSfeAS4TJWEL5-21" style="edgeStyle=orthogonalEdgeStyle;rounded=0;orthogonalLoop=1;jettySize=auto;html=1;exitX=0.5;exitY=1;exitDx=0;exitDy=0;" edge="1" parent="1" source="GDOoH8tKSfeAS4TJWEL5-9" target="GDOoH8tKSfeAS4TJWEL5-11">
          <mxGeometry relative="1" as="geometry" />
        </mxCell>
        <mxCell id="GDOoH8tKSfeAS4TJWEL5-9" value="&lt;span style=&quot;font-size: 16px;&quot;&gt;&lt;b&gt;Average Pooling&lt;/b&gt;&lt;/span&gt;" style="rounded=0;whiteSpace=wrap;html=1;fillColor=#f8cecc;strokeColor=#b85450;" vertex="1" parent="1">
          <mxGeometry x="470" y="160" width="100" height="50" as="geometry" />
        </mxCell>
        <mxCell id="GDOoH8tKSfeAS4TJWEL5-22" style="edgeStyle=orthogonalEdgeStyle;rounded=0;orthogonalLoop=1;jettySize=auto;html=1;exitX=0.5;exitY=1;exitDx=0;exitDy=0;entryX=1;entryY=0.5;entryDx=0;entryDy=0;" edge="1" parent="1" source="GDOoH8tKSfeAS4TJWEL5-11" target="GDOoH8tKSfeAS4TJWEL5-16">
          <mxGeometry relative="1" as="geometry" />
        </mxCell>
        <mxCell id="GDOoH8tKSfeAS4TJWEL5-11" value="&lt;span style=&quot;font-size: 16px;&quot;&gt;&lt;b&gt;1 * 1 Conv, 256&lt;/b&gt;&lt;/span&gt;" style="rounded=0;whiteSpace=wrap;html=1;fillColor=#f8cecc;strokeColor=#b85450;" vertex="1" parent="1">
          <mxGeometry x="470" y="250" width="100" height="50" as="geometry" />
        </mxCell>
        <mxCell id="GDOoH8tKSfeAS4TJWEL5-18" style="edgeStyle=orthogonalEdgeStyle;rounded=0;orthogonalLoop=1;jettySize=auto;html=1;exitX=0.5;exitY=1;exitDx=0;exitDy=0;entryX=0.25;entryY=0;entryDx=0;entryDy=0;" edge="1" parent="1" source="GDOoH8tKSfeAS4TJWEL5-12" target="GDOoH8tKSfeAS4TJWEL5-16">
          <mxGeometry relative="1" as="geometry" />
        </mxCell>
        <mxCell id="GDOoH8tKSfeAS4TJWEL5-12" value="&lt;span style=&quot;font-size: 16px;&quot;&gt;&lt;b&gt;1 * 3 Conv, 256&lt;/b&gt;&lt;/span&gt;" style="rounded=0;whiteSpace=wrap;html=1;fillColor=#f8cecc;strokeColor=#b85450;" vertex="1" parent="1">
          <mxGeometry x="120" y="280" width="100" height="50" as="geometry" />
        </mxCell>
        <mxCell id="GDOoH8tKSfeAS4TJWEL5-19" style="edgeStyle=orthogonalEdgeStyle;rounded=0;orthogonalLoop=1;jettySize=auto;html=1;exitX=0.5;exitY=1;exitDx=0;exitDy=0;entryX=0.5;entryY=0;entryDx=0;entryDy=0;" edge="1" parent="1" source="GDOoH8tKSfeAS4TJWEL5-13" target="GDOoH8tKSfeAS4TJWEL5-16">
          <mxGeometry relative="1" as="geometry" />
        </mxCell>
        <mxCell id="GDOoH8tKSfeAS4TJWEL5-13" value="&lt;span style=&quot;font-size: 16px;&quot;&gt;&lt;b&gt;3 * 1&amp;nbsp; Conv, 256&lt;/b&gt;&lt;/span&gt;" style="rounded=0;whiteSpace=wrap;html=1;fillColor=#f8cecc;strokeColor=#b85450;" vertex="1" parent="1">
          <mxGeometry x="235" y="280" width="100" height="50" as="geometry" />
        </mxCell>
        <mxCell id="GDOoH8tKSfeAS4TJWEL5-16" value="&lt;span style=&quot;font-size: 16px;&quot;&gt;&lt;b&gt;Concatenate&lt;/b&gt;&lt;/span&gt;" style="rounded=0;whiteSpace=wrap;html=1;fillColor=#f5f5f5;fontColor=#333333;strokeColor=#666666;" vertex="1" parent="1">
          <mxGeometry x="230" y="370" width="110" height="40" as="geometry" />
        </mxCell>
      </root>
    </mxGraphModel>
  </diagram>
</mxfile>
